<?xml version="1.0" encoding="UTF-8"?>
<svg id="Layer_1" data-name="Layer 1" xmlns="http://www.w3.org/2000/svg" viewBox="0 0 1072.35 300">
  <defs>
    <style>
      .cls-1 {
        fill: #fff;
      }
    </style>
  </defs>
  <g>
    <path class="cls-1" d="M286.09,192.69c-1.35,1.35-2.75,2.62-4.19,3.81l6.86,6.86c2.21,2.21,5.79,2.21,8.01,0,2.21-2.21,2.21-5.79,0-8.01l-6.86-6.86c-1.2,1.44-2.46,2.84-3.81,4.19Z"/>
    <path class="cls-1" d="M286.09,107.31c1.35,1.35,2.62,2.75,3.81,4.19l6.86-6.86c2.21-2.21,2.21-5.79,0-8.01-2.21-2.21-5.79-2.21-8.01,0l-6.86,6.86c1.44,1.2,2.84,2.46,4.19,3.81Z"/>
    <circle class="cls-1" cx="150" cy="56.61" r="56.61"/>
    <circle class="cls-1" cx="150" cy="243.39" r="56.61"/>
    <path class="cls-1" d="M16.58,109.97l5.33,5.33s0,0,0,0c11.45-11.45,27.57-16.54,44.07-13.5,6.54,1.21,12.76,3.81,18.23,7.6,12.9,8.96,20.51,22.72,21.36,37.76.82,14.52-4.87,28.75-15.49,38.69-8.73,8.16-19.93,12.8-31.88,13.18-13.54.43-26.74-4.78-36.32-14.36-9.25-9.26-14.35-21.57-14.35-34.67,0-13.1,5.1-25.42,14.36-34.68,0,0,0,0,0,0l-5.33-5.33M16.58,109.97c-22.11,22.11-22.11,57.95,0,80.05,22.11,22.11,57.95,22.11,80.05,0,22.11-22.11,22.11-57.95,0-80.05-22.11-22.11-57.95-22.11-80.05,0h0Z"/>
    <path class="cls-1" d="M208.71,115.31c9.27-9.27,21.59-14.37,34.69-14.37,13.1,0,25.42,5.1,34.69,14.37,9.27,9.27,14.37,21.59,14.37,34.69,0,13.1-5.1,25.42-14.37,34.69-9.27,9.27-21.59,14.37-34.69,14.37-13.1,0-25.42-5.1-34.69-14.37-9.27-9.27-14.37-21.59-14.37-34.69,0-13.1,5.1-25.42,14.37-34.69M203.37,109.97c-22.11,22.11-22.11,57.95,0,80.05,22.11,22.11,57.95,22.11,80.05,0,22.11-22.11,22.11-57.95,0-80.05-22.11-22.11-57.95-22.11-80.05,0h0Z"/>
    <path class="cls-1" d="M103.49,95.11l-8.38,8.38c1.44,1.2,2.84,2.46,4.19,3.81s2.62,2.75,3.81,4.19l8.38-8.38c-1.44-1.2-2.84-2.46-4.19-3.81-1.35-1.35-2.62-2.75-3.81-4.19Z"/>
    <path class="cls-1" d="M196.51,95.11c-1.2,1.44-2.46,2.84-3.81,4.19-1.35,1.35-2.75,2.62-4.19,3.81l8.38,8.38c1.2-1.44,2.46-2.84,3.81-4.19,1.35-1.35,2.75-2.62,4.19-3.81l-8.38-8.38Z"/>
    <path class="cls-1" d="M192.69,200.7c1.35,1.35,2.62,2.75,3.81,4.19l8.38-8.38c-1.44-1.2-2.84-2.46-4.19-3.81-1.35-1.35-2.62-2.75-3.81-4.19l-8.38,8.38c1.44,1.2,2.84,2.46,4.19,3.81Z"/>
    <path class="cls-1" d="M103.49,204.89c1.2-1.44,2.46-2.84,3.81-4.19,1.35-1.35,2.75-2.62,4.19-3.81l-8.38-8.38c-1.2,1.44-2.46,2.84-3.81,4.19-1.35,1.35-2.75,2.62-4.19,3.81l8.38,8.38Z"/>
    <path class="cls-1" d="M107.31,286.09c-1.35-1.35-2.62-2.75-3.81-4.19l-6.86,6.86c-2.21,2.21-2.21,5.79,0,8.01s5.79,2.21,8.01,0l6.86-6.86c-1.44-1.2-2.84-2.46-4.19-3.81Z"/>
    <path class="cls-1" d="M203.37,288.76l-6.86-6.86c-1.2,1.44-2.46,2.84-3.81,4.19-1.35,1.35-2.75,2.62-4.19,3.81l6.86,6.86c2.21,2.21,5.79,2.21,8.01,0s2.21-5.79,0-8.01Z"/>
    <path class="cls-1" d="M13.91,192.69c-1.35-1.35-2.62-2.75-3.81-4.19l-6.86,6.86c-2.21,2.21-2.21,5.79,0,8.01,2.21,2.21,5.79,2.21,8.01,0l6.86-6.86c-1.44-1.2-2.84-2.46-4.19-3.81Z"/>
    <path class="cls-1" d="M96.63,11.24l6.86,6.86c1.2-1.44,2.46-2.84,3.81-4.19,1.35-1.35,2.75-2.62,4.19-3.81l-6.86-6.86c-2.21-2.21-5.79-2.21-8.01,0-2.21,2.21-2.21,5.79,0,8.01Z"/>
    <path class="cls-1" d="M192.69,13.91c1.35,1.35,2.62,2.75,3.81,4.19l6.86-6.86c2.21-2.21,2.21-5.79,0-8.01-2.21-2.21-5.79-2.21-8.01,0l-6.86,6.86c1.44,1.2,2.84,2.46,4.19,3.81Z"/>
    <path class="cls-1" d="M13.91,107.31c1.35-1.35,2.75-2.62,4.19-3.81l-6.86-6.86c-2.21-2.21-5.79-2.21-8.01,0-2.21,2.21-2.21,5.79,0,8.01l6.86,6.86c1.2-1.44,2.46-2.84,3.81-4.19Z"/>
  </g>
  <g>
    <g>
      <path class="cls-1" d="M471.92,206.37h-27.65V75.49h-44.28v-23.33h116.2v23.33h-44.28v130.89Z"/>
      <path class="cls-1" d="M627.43,206.37h-87.69V52.16h87.69v23.11h-60.04v39.31h56.16v23.11h-56.16v45.36h60.04v23.33Z"/>
      <path class="cls-1" d="M749.89,164.25c0,13.68-4.97,24.48-14.9,32.4-9.94,7.92-23.69,11.88-41.25,11.88s-31.39-2.88-43.2-8.64v-25.92c6.48,2.88,13.64,5.51,21.49,7.88,7.85,2.38,15.73,3.56,23.65,3.56,9.36,0,16.16-1.84,20.41-5.51,4.25-3.67,6.37-8.39,6.37-14.15,0-6.33-2.74-11.41-8.21-15.23-5.47-3.81-13.47-7.95-23.97-12.42-6.34-2.59-12.42-5.79-18.25-9.61-5.83-3.81-10.58-8.64-14.26-14.47-3.67-5.83-5.51-13.14-5.51-21.92,0-13.1,4.64-23.4,13.93-30.89,9.29-7.49,21.71-11.23,37.26-11.23,8.06,0,15.73.86,23,2.59,7.27,1.73,14.43,4.18,21.49,7.34l-8.86,22.25c-6.48-2.73-12.64-4.89-18.47-6.48-5.83-1.58-11.85-2.38-18.03-2.38-7.49,0-13.17,1.66-17.06,4.97-3.89,3.31-5.83,7.7-5.83,13.17,0,4.18,1.08,7.74,3.24,10.69,2.16,2.95,5.51,5.65,10.04,8.1,4.54,2.45,10.4,5.26,17.6,8.42,8.35,3.6,15.44,7.38,21.27,11.34,5.83,3.96,10.29,8.64,13.39,14.04,3.09,5.4,4.64,12.13,4.64,20.19Z"/>
      <path class="cls-1" d="M901.29,52.16v99.78c0,10.66-2.27,20.27-6.8,28.83-4.54,8.57-11.41,15.33-20.63,20.3-9.22,4.97-20.88,7.45-34.99,7.45-20.02,0-35.21-5.22-45.57-15.66-10.37-10.44-15.55-24.22-15.55-41.36V52.16h27.65v96.54c0,12.67,2.84,21.89,8.53,27.65,5.69,5.76,14.29,8.64,25.81,8.64s20.63-3.13,26.03-9.4c5.4-6.26,8.1-15.3,8.1-27.11V52.16h27.43Z"/>
      <path class="cls-1" d="M934.98,250c-4.03,0-7.52-.22-10.48-.65-2.95-.43-5.51-1.01-7.67-1.73v-23.11c2.3.57,4.75,1.08,7.34,1.51,2.59.43,5.33.65,8.21.65,3.74,0,7.16-.72,10.26-2.16,3.09-1.44,5.58-4.1,7.45-7.99,1.87-3.89,2.81-9.43,2.81-16.63V52.16h27.65v147.08c0,18-4.21,30.96-12.64,38.88-8.42,7.92-19.4,11.88-32.94,11.88Z"/>
      <path class="cls-1" d="M1072.35,206.37h-64.79v-15.77l18.57-6.91v-108.64l-18.57-7.13v-15.77h64.79v15.77l-18.57,7.13v108.64l18.57,6.91v15.77Z"/>
    </g>
    <g>
      <path class="cls-1" d="M408.16,240.88h5.82v8.25c-.91.3-1.83.52-2.76.66-.93.14-1.98.21-3.16.21-1.74,0-3.21-.35-4.41-1.05-1.19-.7-2.1-1.7-2.72-2.99-.62-1.3-.93-2.83-.93-4.61s.34-3.27,1.03-4.56c.68-1.3,1.68-2.3,2.98-3.02,1.3-.71,2.88-1.07,4.71-1.07.94,0,1.83.09,2.68.26.84.17,1.62.42,2.35.73l-.8,1.84c-.6-.25-1.27-.48-2.02-.67-.75-.2-1.52-.29-2.32-.29-2.01,0-3.58.61-4.7,1.83-1.12,1.22-1.69,2.87-1.69,4.96,0,1.34.22,2.52.65,3.55.43,1.03,1.11,1.83,2.04,2.41s2.15.86,3.65.86c.74,0,1.37-.04,1.89-.12.52-.08.99-.17,1.41-.28v-5h-3.7v-1.89Z"/>
      <path class="cls-1" d="M439.77,241.32c0,1.75-.29,3.27-.88,4.56-.59,1.3-1.46,2.31-2.62,3.03s-2.57,1.08-4.26,1.08-3.19-.36-4.35-1.08c-1.15-.72-2.02-1.74-2.58-3.04-.57-1.3-.85-2.83-.85-4.57s.28-3.22.85-4.51c.57-1.3,1.43-2.31,2.58-3.03,1.16-.72,2.61-1.08,4.37-1.08s3.1.36,4.24,1.07c1.15.72,2.02,1.72,2.6,3.02s.88,2.82.88,4.56ZM426.47,241.32c0,2.12.45,3.79,1.34,5.01.9,1.22,2.29,1.83,4.2,1.83s3.3-.61,4.18-1.83c.89-1.22,1.33-2.89,1.33-5.01s-.44-3.78-1.32-4.99-2.27-1.8-4.17-1.8-3.32.6-4.22,1.8c-.9,1.2-1.34,2.86-1.34,4.99Z"/>
      <path class="cls-1" d="M470.98,234.56c-1.81,0-3.23.6-4.27,1.81-1.04,1.21-1.56,2.87-1.56,4.97s.48,3.74,1.45,4.96,2.42,1.83,4.35,1.83c.72,0,1.41-.06,2.07-.19.66-.13,1.31-.28,1.96-.47v1.84c-.63.24-1.28.41-1.94.52s-1.47.16-2.39.16c-1.71,0-3.14-.35-4.29-1.06-1.15-.71-2.01-1.71-2.58-3.02s-.86-2.84-.86-4.6.31-3.19.93-4.49c.62-1.3,1.54-2.31,2.75-3.04,1.21-.73,2.68-1.1,4.41-1.1s3.32.33,4.64.99l-.85,1.79c-.52-.24-1.1-.45-1.73-.64s-1.33-.28-2.09-.28Z"/>
      <path class="cls-1" d="M499.96,241.32c0,1.75-.29,3.27-.88,4.56-.59,1.3-1.46,2.31-2.62,3.03s-2.57,1.08-4.26,1.08-3.19-.36-4.35-1.08c-1.15-.72-2.02-1.74-2.58-3.04-.57-1.3-.85-2.83-.85-4.57s.28-3.22.85-4.51c.57-1.3,1.43-2.31,2.58-3.03,1.16-.72,2.61-1.08,4.37-1.08s3.1.36,4.24,1.07c1.15.72,2.02,1.72,2.6,3.02s.88,2.82.88,4.56ZM486.66,241.32c0,2.12.45,3.79,1.34,5.01.9,1.22,2.29,1.83,4.2,1.83s3.3-.61,4.18-1.83c.89-1.22,1.33-2.89,1.33-5.01s-.44-3.78-1.32-4.99-2.27-1.8-4.17-1.8-3.32.6-4.22,1.8c-.9,1.2-1.34,2.86-1.34,4.99Z"/>
      <path class="cls-1" d="M518.18,249.76l-5.54-14.76h-.09c.05.49.09,1.14.12,1.97.03.83.05,1.69.05,2.58v10.21h-1.96v-16.83h3.14l5.19,13.79h.09l5.28-13.79h3.11v16.83h-2.1v-10.35c0-.82.02-1.63.06-2.43.04-.8.07-1.45.11-1.96h-.09l-5.61,14.73h-1.74Z"/>
      <path class="cls-1" d="M543.66,232.93c2.2,0,3.8.43,4.81,1.3,1.01.86,1.51,2.08,1.51,3.65,0,.93-.21,1.8-.62,2.61-.42.81-1.12,1.47-2.1,1.97s-2.31.75-4,.75h-1.93v6.55h-2.12v-16.83h4.46ZM543.48,234.75h-2.15v6.65h1.7c1.6,0,2.8-.26,3.58-.78.79-.52,1.18-1.4,1.18-2.64,0-1.08-.35-1.89-1.05-2.43-.7-.53-1.79-.8-3.27-.8Z"/>
      <path class="cls-1" d="M569.95,249.76h-9.41v-16.83h9.41v1.86h-7.29v5.26h6.86v1.84h-6.86v6.01h7.29v1.86Z"/>
      <path class="cls-1" d="M586.05,249.76h-2.12v-14.97h-5.26v-1.86h12.61v1.86h-5.23v14.97Z"/>
      <path class="cls-1" d="M605.64,249.76h-6.08v-1.23l1.98-.45v-13.46l-1.98-.47v-1.23h6.08v1.23l-1.98.47v13.46l1.98.45v1.23Z"/>
      <path class="cls-1" d="M621.3,249.76h-2.12v-14.97h-5.26v-1.86h12.61v1.86h-5.23v14.97Z"/>
      <path class="cls-1" d="M640.89,249.76h-6.08v-1.23l1.98-.45v-13.46l-1.98-.47v-1.23h6.08v1.23l-1.98.47v13.46l1.98.45v1.23Z"/>
      <path class="cls-1" d="M665.9,241.32c0,1.75-.29,3.27-.88,4.56-.59,1.3-1.46,2.31-2.62,3.03-1.15.72-2.57,1.08-4.25,1.08s-3.19-.36-4.35-1.08c-1.16-.72-2.02-1.74-2.58-3.04-.57-1.3-.85-2.83-.85-4.57s.28-3.22.85-4.51c.57-1.3,1.43-2.31,2.58-3.03,1.15-.72,2.61-1.08,4.37-1.08s3.1.36,4.24,1.07,2.02,1.72,2.6,3.02.88,2.82.88,4.56ZM652.6,241.32c0,2.12.45,3.79,1.34,5.01.9,1.22,2.29,1.83,4.2,1.83s3.3-.61,4.18-1.83c.89-1.22,1.33-2.89,1.33-5.01s-.44-3.78-1.32-4.99c-.88-1.2-2.27-1.8-4.17-1.8s-3.32.6-4.22,1.8c-.9,1.2-1.34,2.86-1.34,4.99Z"/>
      <path class="cls-1" d="M690.04,249.76h-2.47l-9.01-13.98h-.09c.03.55.07,1.23.12,2.05.05.82.07,1.66.07,2.52v9.41h-1.96v-16.83h2.45l8.98,13.93h.09c-.02-.25-.04-.63-.06-1.13-.02-.5-.05-1.05-.07-1.64s-.04-1.14-.04-1.66v-9.5h1.98v16.83Z"/>
      <path class="cls-1" d="M729.57,241.32c0,1.75-.29,3.27-.88,4.56-.59,1.3-1.46,2.31-2.62,3.03-1.15.72-2.57,1.08-4.25,1.08s-3.19-.36-4.35-1.08c-1.16-.72-2.02-1.74-2.58-3.04-.57-1.3-.85-2.83-.85-4.57s.28-3.22.85-4.51c.57-1.3,1.43-2.31,2.58-3.03,1.15-.72,2.61-1.08,4.37-1.08s3.1.36,4.24,1.07,2.02,1.72,2.6,3.02.88,2.82.88,4.56ZM716.28,241.32c0,2.12.45,3.79,1.34,5.01.9,1.22,2.29,1.83,4.2,1.83s3.3-.61,4.18-1.83c.89-1.22,1.33-2.89,1.33-5.01s-.44-3.78-1.32-4.99c-.88-1.2-2.27-1.8-4.17-1.8s-3.32.6-4.22,1.8c-.9,1.2-1.34,2.86-1.34,4.99Z"/>
      <path class="cls-1" d="M745.02,232.93c2.09,0,3.63.4,4.63,1.19,1,.79,1.5,1.99,1.5,3.6,0,.9-.16,1.64-.49,2.24-.33.6-.75,1.08-1.26,1.44-.51.36-1.05.64-1.61.83l4.62,7.54h-2.48l-4.08-6.95h-3.35v6.95h-2.12v-16.83h4.64ZM744.9,234.77h-2.4v6.25h2.52c1.37,0,2.37-.27,2.99-.81s.94-1.34.94-2.39-.33-1.88-.99-2.35c-.66-.46-1.68-.7-3.07-.7Z"/>
      <path class="cls-1" d="M769.41,240.88h5.82v8.25c-.91.3-1.83.52-2.76.66-.93.14-1.98.21-3.16.21-1.74,0-3.21-.35-4.41-1.05-1.19-.7-2.1-1.7-2.72-2.99-.62-1.3-.93-2.83-.93-4.61s.34-3.27,1.03-4.56c.68-1.3,1.68-2.3,2.98-3.02,1.3-.71,2.88-1.07,4.71-1.07.94,0,1.83.09,2.68.26.84.17,1.62.42,2.35.73l-.8,1.84c-.6-.25-1.27-.48-2.02-.67-.75-.2-1.52-.29-2.32-.29-2.01,0-3.58.61-4.7,1.83-1.12,1.22-1.69,2.87-1.69,4.96,0,1.34.22,2.52.65,3.55.43,1.03,1.11,1.83,2.04,2.41.93.57,2.14.86,3.65.86.74,0,1.37-.04,1.89-.12.52-.08.99-.17,1.41-.28v-5h-3.7v-1.89Z"/>
      <path class="cls-1" d="M796.9,249.76l-2.03-5.21h-6.67l-2,5.21h-2.15l6.58-16.9h1.91l6.55,16.9h-2.19ZM794.24,242.67l-1.89-5.09c-.05-.13-.13-.35-.24-.68s-.22-.67-.32-1.03c-.1-.35-.18-.63-.25-.81-.13.49-.26.96-.39,1.43-.13.46-.25.83-.34,1.1l-1.91,5.09h5.33Z"/>
      <path class="cls-1" d="M821.82,249.76h-2.47l-9.01-13.98h-.09c.03.55.07,1.23.12,2.05.05.82.07,1.66.07,2.52v9.41h-1.96v-16.83h2.45l8.98,13.93h.09c-.02-.25-.04-.63-.06-1.13-.02-.5-.05-1.05-.07-1.64s-.04-1.14-.04-1.66v-9.5h1.98v16.83Z"/>
      <path class="cls-1" d="M838.21,249.76h-6.08v-1.23l1.98-.45v-13.46l-1.98-.47v-1.23h6.08v1.23l-1.98.47v13.46l1.98.45v1.23Z"/>
      <path class="cls-1" d="M858.81,249.76h-11.67v-1.6l8.86-13.34h-8.58v-1.89h11.15v1.6l-8.86,13.34h9.1v1.89Z"/>
      <path class="cls-1" d="M878.49,249.76h-9.41v-16.83h9.41v1.86h-7.28v5.26h6.86v1.84h-6.86v6.01h7.28v1.86Z"/>
      <path class="cls-1" d="M893.91,232.93c2.09,0,3.63.4,4.63,1.19,1,.79,1.5,1.99,1.5,3.6,0,.9-.16,1.64-.49,2.24-.33.6-.75,1.08-1.26,1.44-.51.36-1.05.64-1.61.83l4.62,7.54h-2.48l-4.08-6.95h-3.35v6.95h-2.12v-16.83h4.64ZM893.79,234.77h-2.4v6.25h2.52c1.37,0,2.37-.27,2.99-.81s.94-1.34.94-2.39-.33-1.88-.99-2.35c-.66-.46-1.68-.7-3.07-.7Z"/>
    </g>
  </g>
</svg>