<?xml version="1.0" encoding="UTF-8"?>
<svg id="Layer_1" data-name="Layer 1" xmlns="http://www.w3.org/2000/svg" viewBox="0 0 300 300">
  <path d="M286.09,192.69c-1.35,1.35-2.75,2.62-4.19,3.81l6.86,6.86c2.21,2.21,5.79,2.21,8.01,0,2.21-2.21,2.21-5.79,0-8.01l-6.86-6.86c-1.2,1.44-2.46,2.84-3.81,4.19Z"/>
  <path d="M286.09,107.31c1.35,1.35,2.62,2.75,3.81,4.19l6.86-6.86c2.21-2.21,2.21-5.79,0-8.01-2.21-2.21-5.79-2.21-8.01,0l-6.86,6.86c1.44,1.2,2.84,2.46,4.19,3.81Z"/>
  <circle cx="150" cy="56.61" r="56.61"/>
  <circle cx="150" cy="243.39" r="56.61"/>
  <path d="M16.58,109.97l5.33,5.33s0,0,0,0c11.45-11.45,27.57-16.54,44.07-13.5,6.54,1.21,12.76,3.81,18.23,7.6,12.9,8.96,20.51,22.72,21.36,37.76.82,14.52-4.87,28.75-15.49,38.69-8.73,8.16-19.93,12.8-31.88,13.18-13.54.43-26.74-4.78-36.32-14.36-9.25-9.26-14.35-21.57-14.35-34.67,0-13.1,5.1-25.42,14.36-34.68,0,0,0,0,0,0l-5.33-5.33M16.58,109.97c-22.11,22.11-22.11,57.95,0,80.05,22.11,22.11,57.95,22.11,80.05,0,22.11-22.11,22.11-57.95,0-80.05-22.11-22.11-57.95-22.11-80.05,0h0Z"/>
  <path d="M208.71,115.31c9.27-9.27,21.59-14.37,34.69-14.37,13.1,0,25.42,5.1,34.69,14.37,9.27,9.27,14.37,21.59,14.37,34.69,0,13.1-5.1,25.42-14.37,34.69-9.27,9.27-21.59,14.37-34.69,14.37-13.1,0-25.42-5.1-34.69-14.37-9.27-9.27-14.37-21.59-14.37-34.69,0-13.1,5.1-25.42,14.37-34.69M203.37,109.97c-22.11,22.11-22.11,57.95,0,80.05,22.11,22.11,57.95,22.11,80.05,0,22.11-22.11,22.11-57.95,0-80.05-22.11-22.11-57.95-22.11-80.05,0h0Z"/>
  <path d="M103.49,95.11l-8.38,8.38c1.44,1.2,2.84,2.46,4.19,3.81s2.62,2.75,3.81,4.19l8.38-8.38c-1.44-1.2-2.84-2.46-4.19-3.81-1.35-1.35-2.62-2.75-3.81-4.19Z"/>
  <path d="M196.51,95.11c-1.2,1.44-2.46,2.84-3.81,4.19-1.35,1.35-2.75,2.62-4.19,3.81l8.38,8.38c1.2-1.44,2.46-2.84,3.81-4.19,1.35-1.35,2.75-2.62,4.19-3.81l-8.38-8.38Z"/>
  <path d="M192.69,200.7c1.35,1.35,2.62,2.75,3.81,4.19l8.38-8.38c-1.44-1.2-2.84-2.46-4.19-3.81-1.35-1.35-2.62-2.75-3.81-4.19l-8.38,8.38c1.44,1.2,2.84,2.46,4.19,3.81Z"/>
  <path d="M103.49,204.89c1.2-1.44,2.46-2.84,3.81-4.19,1.35-1.35,2.75-2.62,4.19-3.81l-8.38-8.38c-1.2,1.44-2.46,2.84-3.81,4.19-1.35,1.35-2.75,2.62-4.19,3.81l8.38,8.38Z"/>
  <path d="M107.31,286.09c-1.35-1.35-2.62-2.75-3.81-4.19l-6.86,6.86c-2.21,2.21-2.21,5.79,0,8.01s5.79,2.21,8.01,0l6.86-6.86c-1.44-1.2-2.84-2.46-4.19-3.81Z"/>
  <path d="M203.37,288.76l-6.86-6.86c-1.2,1.44-2.46,2.84-3.81,4.19-1.35,1.35-2.75,2.62-4.19,3.81l6.86,6.86c2.21,2.21,5.79,2.21,8.01,0s2.21-5.79,0-8.01Z"/>
  <path d="M13.91,192.69c-1.35-1.35-2.62-2.75-3.81-4.19l-6.86,6.86c-2.21,2.21-2.21,5.79,0,8.01,2.21,2.21,5.79,2.21,8.01,0l6.86-6.86c-1.44-1.2-2.84-2.46-4.19-3.81Z"/>
  <path d="M96.63,11.24l6.86,6.86c1.2-1.44,2.46-2.84,3.81-4.19,1.35-1.35,2.75-2.62,4.19-3.81l-6.86-6.86c-2.21-2.21-5.79-2.21-8.01,0-2.21,2.21-2.21,5.79,0,8.01Z"/>
  <path d="M192.69,13.91c1.35,1.35,2.62,2.75,3.81,4.19l6.86-6.86c2.21-2.21,2.21-5.79,0-8.01-2.21-2.21-5.79-2.21-8.01,0l-6.86,6.86c1.44,1.2,2.84,2.46,4.19,3.81Z"/>
  <path d="M13.91,107.31c1.35-1.35,2.75-2.62,4.19-3.81l-6.86-6.86c-2.21-2.21-5.79-2.21-8.01,0-2.21,2.21-2.21,5.79,0,8.01l6.86,6.86c1.2-1.44,2.46-2.84,3.81-4.19Z"/>
</svg>